<svg width="17" height="9" viewBox="0 0 17 9" fill="none" xmlns="http://www.w3.org/2000/svg">
<path d="M2.1212 8.21296L8.50032 2.13284L14.9028 8.21296C15.0436 8.34491 15.6899 8.86574 15.8739 8.93715C16.058 9.00856 15.8644 8.96826 16.0636 8.96826C16.2628 8.96826 16.1373 9.03967 16.3213 8.96826C16.5053 8.89685 16.4149 9.0691 16.5557 8.93715C16.6966 8.8052 16.8083 8.67969 16.8845 8.50729C16.9608 8.33488 17 8.1501 17 7.96349C17 7.77689 16.9608 7.5921 16.8845 7.4197C16.8083 7.2473 16.6966 7.09065 16.5557 6.95869L9.57286 0.416806C9.43211 0.28468 9.26494 0.179856 9.0809 0.108335C8.89686 0.0368144 8.69957 0 8.50032 0C8.30108 0 8.10379 0.0368144 7.91975 0.108335C7.73571 0.179856 7.56853 0.28468 7.42779 0.416806L0.444902 6.95869C0.30387 7.09055 0.19198 7.24717 0.115638 7.41959C0.0392954 7.592 0 7.77683 0 7.96349C0 8.15016 0.0392954 8.04054 0.115638 8.21296C0.19198 8.38538 0.331731 8.63953 0.331731 8.63953C1.22647 8.96829 1.52789 8.76881 2.1212 8.21296Z" fill="#BEBEBE"/>
</svg>
